<?xml version="1.0" standalone="no"?>
<!DOCTYPE svg PUBLIC "-//W3C//DTD SVG 20010904//EN"
 "http://www.w3.org/TR/2001/REC-SVG-20010904/DTD/svg10.dtd">
<svg version="1.0" xmlns="http://www.w3.org/2000/svg"
 width="512.000000pt" height="512.000000pt" viewBox="0 0 512.000000 512.000000"
 preserveAspectRatio="xMidYMid meet">
<metadata>
Created by potrace 1.14, written by Peter Selinger 2001-2017
</metadata>
<g transform="translate(0.000000,512.000000) scale(0.100000,-0.100000)"
fill="#000000" stroke="none">
<path d="M0 2560 l0 -2560 2560 0 2560 0 0 2560 0 2560 -2560 0 -2560 0 0
-2560z m4506 661 c90 -55 47 -201 -59 -201 -60 0 -107 48 -107 110 0 89 89
138 166 91z m-3082 -664 c102 -358 186 -658 186 -665 0 -9 -34 -12 -133 -12
l-134 0 -43 165 -43 165 -198 0 -198 0 -11 -37 c-5 -21 -25 -95 -42 -165 l-33
-128 -139 0 c-115 0 -137 2 -133 14 3 8 88 307 188 665 l183 651 181 0 182 0
187 -653z m1106 -12 l0 -665 -302 0 c-221 0 -317 4 -353 14 -122 32 -223 114
-271 221 -22 47 -27 74 -28 135 0 90 13 140 55 203 26 40 88 96 123 111 7 3 4
9 -7 16 -45 29 -90 77 -115 124 -24 46 -27 62 -27 151 0 84 4 109 24 152 39
87 119 147 237 177 89 22 98 23 392 25 l272 1 0 -665z m683 650 c154 -27 258
-98 297 -202 27 -72 28 -210 1 -269 -22 -48 -75 -111 -115 -135 l-28 -17 28
-18 c54 -33 96 -79 127 -139 29 -55 31 -68 32 -155 0 -82 -4 -103 -27 -152
-48 -103 -160 -190 -279 -217 -24 -6 -178 -11 -341 -11 l-298 0 0 665 0 665
263 0 c178 -1 287 -5 340 -15z m1210 -642 c103 -362 188 -661 187 -665 0 -5
-60 -8 -134 -8 l-133 0 -43 165 -43 165 -198 0 -198 0 -12 -42 c-6 -24 -26
-97 -43 -163 l-31 -120 -139 -3 c-109 -2 -137 0 -134 10 8 20 368 1305 368
1312 0 3 82 6 183 6 l183 0 187 -657z"/>
<path d="M4423 3222 c-31 -5 -73 -58 -73 -91 0 -16 10 -40 21 -55 60 -76 169
-39 169 56 -1 59 -55 100 -117 90z m64 -48 c3 -9 1 -25 -6 -36 -8 -13 -8 -24
-1 -38 13 -24 13 -30 0 -30 -6 0 -16 11 -22 25 -6 14 -15 25 -20 25 -4 0 -8
-11 -8 -25 0 -16 -6 -25 -15 -25 -12 0 -15 13 -15 60 l0 60 40 0 c28 0 43 -5
47 -16z"/>
<path d="M4430 3155 c0 -10 7 -15 18 -13 21 4 19 22 -2 26 -10 2 -16 -3 -16
-13z"/>
<path d="M987 2712 c-37 -147 -68 -273 -67 -279 0 -18 280 -19 280 -2 0 18
-132 533 -139 541 -3 4 -37 -113 -74 -260z"/>
<path d="M1987 2988 c-98 -26 -148 -158 -91 -245 31 -49 88 -67 232 -71 l132
-4 0 166 0 166 -117 -1 c-65 -1 -135 -6 -156 -11z"/>
<path d="M1969 2454 c-56 -17 -105 -68 -115 -119 -10 -57 1 -143 22 -173 11
-15 40 -37 64 -49 40 -21 59 -23 182 -23 l138 0 0 190 0 190 -122 -1 c-76 0
-141 -6 -169 -15z"/>
<path d="M2872 2838 l3 -163 130 0 c109 0 136 4 169 20 61 31 81 65 81 140 0
75 -20 109 -81 140 -32 16 -64 21 -172 23 l-133 4 3 -164z"/>
<path d="M2877 2463 c-4 -3 -7 -89 -7 -191 l0 -184 154 4 c137 3 158 5 182 24
66 49 92 126 73 214 -22 104 -96 140 -284 140 -61 0 -115 -3 -118 -7z"/>
<path d="M3986 2716 c-36 -146 -66 -273 -66 -281 0 -13 22 -15 140 -15 77 0
140 2 140 5 0 17 -134 541 -140 548 -4 5 -37 -111 -74 -257z"/>
</g>
</svg>
